<?xml version="1.0" encoding="UTF-8"?>
<svg xmlns="http://www.w3.org/2000/svg" xmlns:xlink="http://www.w3.org/1999/xlink" width="22pt" height="22pt" viewBox="0 0 22 22" version="1.1">
<g id="surface1">
<path style=" stroke:none;fill-rule:nonzero;fill:rgb(44.705882%,53.72549%,85.490196%);fill-opacity:1;" d="M 18.535156 0 C 19.824219 0 20.863281 1.042969 20.925781 2.269531 L 20.925781 22 L 18.472656 19.917969 L 17.125 18.691406 L 15.65625 17.410156 L 16.269531 19.429688 L 3.402344 19.429688 C 2.117188 19.429688 1.074219 18.453125 1.074219 17.160156 L 1.074219 2.273438 C 1.074219 1.046875 2.117188 0.00390625 3.40625 0.00390625 L 18.53125 0.00390625 Z M 12.929688 5.210938 L 12.902344 5.210938 L 12.714844 5.394531 C 14.617188 5.941406 15.535156 6.800781 15.535156 6.800781 C 14.3125 6.1875 13.207031 5.882812 12.105469 5.757812 C 11.304688 5.636719 10.507812 5.699219 9.835938 5.757812 L 9.652344 5.757812 C 9.222656 5.757812 8.304688 5.941406 7.074219 6.433594 C 6.648438 6.621094 6.402344 6.742188 6.402344 6.742188 C 6.402344 6.742188 7.320312 5.824219 9.34375 5.332031 L 9.222656 5.207031 C 9.222656 5.207031 7.6875 5.148438 6.035156 6.371094 C 6.035156 6.371094 4.378906 9.253906 4.378906 12.808594 C 4.378906 12.808594 5.296875 14.402344 7.808594 14.464844 C 7.808594 14.464844 8.175781 13.972656 8.546875 13.542969 C 7.136719 13.117188 6.585938 12.257812 6.585938 12.257812 C 6.585938 12.257812 6.710938 12.316406 6.894531 12.441406 L 6.949219 12.441406 C 6.976562 12.441406 6.988281 12.453125 7.003906 12.46875 L 7.003906 12.472656 C 7.019531 12.488281 7.03125 12.5 7.058594 12.5 C 7.359375 12.625 7.664062 12.75 7.910156 12.867188 C 8.441406 13.09375 8.992188 13.257812 9.5625 13.359375 C 10.414062 13.484375 11.390625 13.542969 12.503906 13.359375 C 13.054688 13.234375 13.601562 13.113281 14.152344 12.867188 C 14.511719 12.6875 14.949219 12.503906 15.433594 12.195312 C 15.433594 12.195312 14.882812 13.050781 13.414062 13.480469 C 13.714844 13.90625 14.140625 14.398438 14.140625 14.398438 C 16.65625 14.34375 17.632812 12.746094 17.6875 12.816406 C 17.6875 9.265625 16.023438 6.378906 16.023438 6.378906 C 14.527344 5.265625 13.125 5.226562 12.875 5.226562 L 12.929688 5.207031 Z M 13.082031 9.253906 C 13.726562 9.253906 14.246094 9.804688 14.246094 10.476562 C 14.246094 11.15625 13.722656 11.707031 13.082031 11.707031 C 12.441406 11.707031 11.917969 11.15625 11.917969 10.484375 C 11.921875 9.804688 12.445312 9.257812 13.082031 9.257812 Z M 8.917969 9.253906 C 9.558594 9.253906 10.078125 9.804688 10.078125 10.476562 C 10.078125 11.15625 9.554688 11.707031 8.914062 11.707031 C 8.273438 11.707031 7.75 11.15625 7.75 10.484375 C 7.75 9.804688 8.273438 9.257812 8.914062 9.257812 Z M 8.917969 9.253906 "/>
</g>
</svg>
