<?xml version="1.0" encoding="UTF-8"?>
<svg xmlns="http://www.w3.org/2000/svg" xmlns:xlink="http://www.w3.org/1999/xlink" width="22pt" height="22pt" viewBox="0 0 22 22" version="1.1">
<g id="surface1">
<path style=" stroke:none;fill-rule:nonzero;fill:rgb(0%,46.666667%,70.980392%);fill-opacity:1;" d="M 18.742188 18.746094 L 15.484375 18.746094 L 15.484375 13.644531 C 15.484375 12.425781 15.460938 10.859375 13.789062 10.859375 C 12.089844 10.859375 11.828125 12.183594 11.828125 13.554688 L 11.828125 18.746094 L 8.570312 18.746094 L 8.570312 8.25 L 11.703125 8.25 L 11.703125 9.679688 L 11.742188 9.679688 C 12.179688 8.855469 13.242188 7.984375 14.832031 7.984375 C 18.132812 7.984375 18.742188 10.15625 18.742188 12.984375 Z M 4.890625 6.8125 C 4.390625 6.8125 3.910156 6.613281 3.554688 6.257812 C 3.199219 5.902344 3 5.421875 3 4.921875 C 3 3.875 3.847656 3.027344 4.894531 3.03125 C 5.9375 3.03125 6.785156 3.878906 6.785156 4.921875 C 6.785156 5.96875 5.9375 6.8125 4.890625 6.8125 Z M 6.527344 18.746094 L 3.257812 18.746094 L 3.257812 8.25 L 6.527344 8.25 Z M 20.371094 0 L 1.625 0 C 0.726562 0 0 0.710938 0 1.585938 L 0 20.414062 C 0 21.292969 0.726562 22 1.625 22 L 20.371094 22 C 21.265625 22 22 21.292969 22 20.414062 L 22 1.585938 C 22 0.710938 21.265625 0 20.371094 0 Z M 20.371094 0 "/>
</g>
</svg>
