<?xml version="1.0" encoding="UTF-8"?>
<svg xmlns="http://www.w3.org/2000/svg" xmlns:xlink="http://www.w3.org/1999/xlink" width="22pt" height="22pt" viewBox="0 0 22 22" version="1.1">
<g id="surface1">
<path style=" stroke:none;fill-rule:nonzero;fill:rgb(11.372549%,63.137255%,94.901961%);fill-opacity:1;" d="M 21.957031 4.1875 C 21.132812 4.550781 20.261719 4.789062 19.367188 4.898438 C 20.308594 4.332031 21.011719 3.445312 21.351562 2.402344 C 20.480469 2.910156 19.511719 3.28125 18.484375 3.488281 C 17.089844 1.996094 14.867188 1.628906 13.0625 2.589844 C 11.261719 3.554688 10.332031 5.609375 10.800781 7.597656 C 7.050781 7.417969 3.726562 5.621094 1.503906 2.898438 C 1.097656 3.585938 0.886719 4.367188 0.894531 5.167969 C 0.894531 6.734375 1.691406 8.113281 2.898438 8.921875 C 2.183594 8.898438 1.480469 8.703125 0.855469 8.355469 L 0.855469 8.414062 C 0.855469 10.558594 2.367188 12.410156 4.472656 12.835938 C 3.8125 13.015625 3.117188 13.039062 2.445312 12.914062 C 3.039062 14.753906 4.734375 16.011719 6.664062 16.046875 C 5.070312 17.300781 3.101562 17.980469 1.074219 17.976562 C 0.714844 17.976562 0.359375 17.957031 0 17.914062 C 2.066406 19.238281 4.472656 19.941406 6.925781 19.941406 C 15.226562 19.941406 19.757812 13.070312 19.757812 7.121094 C 19.757812 6.929688 19.757812 6.734375 19.746094 6.542969 C 20.632812 5.90625 21.394531 5.113281 22 4.207031 Z M 21.957031 4.1875 "/>
</g>
</svg>
